<?xml version="1.0" encoding="UTF-8" standalone="no"?>
<svg xmlns:svg="http://www.w3.org/2000/svg" xmlns="http://www.w3.org/2000/svg" version="1.1" width="365.23102" height="365.23102" id="svg2">
  <g id="layer1">
    <path d="m 185.4375,57.21875 c -41.04552,0 -74.36704,33.08626 -74.96875,74.125 l 144,-28.3125 C 243.04667,76.105312 216.44413,57.21875 185.4375,57.21875 z m 42.15625,60.59375 -26.5625,5.21875 c 0.0344,0.27517 0.0708,0.56783 0.125,0.84375 1.35061,6.87077 8.39746,11.22657 15.75,9.78125 7.35254,-1.44531 12.22561,-8.16048 10.875,-15.03125 -0.0542,-0.27592 -0.1153,-0.54476 -0.1875,-0.8125 z m -66,12.96875 L 135.03125,136 c 0.0344,0.27517 0.0708,0.56783 0.125,0.84375 1.35061,6.87077 8.39746,11.22656 15.75,9.78125 7.35254,-1.44531 12.22561,-8.16048 10.875,-15.03125 -0.0542,-0.27592 -0.1153,-0.54476 -0.1875,-0.8125 z M 260.375,134.625 116.8125,162.84375 c 11.63977,26.41975 37.98374,44.875 68.625,44.875 40.70099,0 73.79752,-32.5337 74.9375,-73.09375 z m -116.0625,81.5625 c -4.05495,6e-5 -6.0625,1.81118 -6.0625,5.4375 0,1.84621 0.5649,3.34449 1.71875,4.53125 1.18681,1.1539 2.68509,1.75005 4.53125,1.75 1.74725,5e-5 3.16379,-0.6222 4.21875,-1.875 0.989,-1.15379 1.46874,-2.62597 1.46875,-4.40625 -1e-5,-3.62632 -1.95193,-5.43744 -5.875,-5.4375 z m 82,0 c -4.02202,6e-5 -6.03128,1.81118 -6.03125,5.4375 -3e-5,1.87918 0.56488,3.37746 1.71875,4.53125 1.15382,1.1539 2.68334,1.75005 4.5625,1.75 1.71425,5e-5 3.07173,-0.62391 4.09375,-1.84375 1.02194,-1.21972 1.53121,-2.69019 1.53125,-4.4375 -4e-5,-3.62632 -1.95196,-5.43744 -5.875,-5.4375 z m -147.875,21.5625 0,42.21875 12.28125,0 0,-30.0625 26.28125,0 0,30.0625 12.28125,0 0,-29.5625 c -5e-5,-3.59338 -1.52958,-6.65072 -4.5625,-9.15625 -2.83521,-2.34062 -6.09069,-3.49996 -9.75,-3.5 l -36.53125,0 z m 59.8125,0 0,42.21875 12.15625,0 0,-42.21875 -12.15625,0 z m 21.375,0 0,42.21875 12.25,0 0,-30.0625 26.3125,0 0,30.0625 12.28125,0 0,-29.5625 c -5e-5,-3.59338 -1.52958,-6.65072 -4.5625,-9.15625 -2.83521,-2.34062 -6.09069,-3.49996 -9.75,-3.5 l -36.53125,0 z m 60.65625,0 0,58.25 -16.4375,-0.0937 0,-8.3125 -12.15625,0 0,7.75 c 0,3.49449 1.24622,6.49619 3.71875,8.96875 2.47253,2.4725 5.44298,3.68747 8.9375,3.6875 l 15.5,0 c 3.59337,-3e-5 6.56383,-1.21672 8.9375,-3.65625 2.40655,-2.40662 3.62496,-5.40661 3.625,-9 l 0,-57.59375 -12.125,0 z m 35.59375,0 c -3.65935,4e-5 -6.91483,1.15938 -9.75,3.5 -3.03297,2.50553 -4.53125,5.56287 -4.53125,9.15625 l 0,3.84375 12.25,0 0,-4.34375 24.28125,0 0,4.34375 -24.5625,3.65625 c -5.47254,0.8242 -9.18166,2.83518 -11.09375,6 -0.59341,0.98903 -0.875,2.29087 -0.875,3.90625 0,3.26375 1.27231,6.12294 3.84375,8.5625 2.57142,2.4066 5.51579,3.59375 8.8125,3.59375 l 38.1875,0 0,-29.5625 c -6e-5,-3.59338 -1.52958,-6.65072 -4.5625,-9.15625 -2.83521,-2.34062 -6.0907,-3.49996 -9.75,-3.5 l -22.25,0 z m 22.25,26.65625 0,3.40625 -24.28125,0 24.28125,-3.40625 z" id="path2816" style="fill:#000000;fill-opacity:1;stroke:none" />
  </g>
</svg>
